<svg width="170" height="35" viewBox="0 0 170 35" fill="none" xmlns="http://www.w3.org/2000/svg">
<path d="M25.4657 25.886C25.0489 26.1083 24.6599 26.3028 24.2987 26.4695C22.5481 27.3309 20.6864 27.581 18.7692 27.2753C16.7685 26.9419 15.7404 25.6637 15.6848 23.5519C15.657 21.8569 16.1016 20.2453 16.4629 18.6337C17.1297 15.7161 17.7966 12.7985 18.4635 9.88086C18.6302 9.15841 18.9081 8.93611 19.6583 8.93611C20.7142 8.93611 21.7979 8.93611 22.8538 8.93611C23.7152 8.93611 23.8819 9.13063 23.6874 9.99201C23.0483 12.7985 22.3814 15.5771 21.7423 18.3836C21.52 19.4117 21.2977 20.412 21.131 21.4401C20.9643 22.3849 21.4367 22.9128 22.3814 22.9962C23.6874 23.1351 24.8267 22.635 25.9381 22.0792C26.0771 22.0237 26.1604 21.7736 26.216 21.6068C27.1329 17.7167 28.0221 13.7988 28.9113 9.90865C29.1058 9.10283 29.3281 8.90833 30.1339 8.90833C31.2454 8.90833 32.3291 8.90833 33.4405 8.90833C34.1074 8.90833 34.3019 9.15841 34.163 9.7975C33.6628 11.9927 33.1627 14.1878 32.6625 16.383C31.94 19.5506 31.1898 22.7183 30.4674 25.9138C30.2173 26.9697 30.0783 27.1086 29.0224 27.1086C28.1055 27.1086 27.2163 27.1086 26.2993 27.1086C25.4657 27.1086 25.3824 26.9697 25.5213 26.1639C25.4935 26.1083 25.4657 26.0249 25.4657 25.886Z" fill="white"/>
<path d="M5.62632 8.13026C4.01469 8.13026 2.48642 8.13026 0.958154 8.13026C-0.0143805 8.13026 -0.125529 7.99133 0.0967646 7.01879C0.291271 6.18519 0.48578 5.3238 0.680287 4.4902C0.847007 3.73996 1.0693 3.57324 1.87511 3.57324C4.32034 3.57324 6.73778 3.57324 9.18301 3.57324C11.7672 3.57324 14.3236 3.57324 16.9077 3.57324C17.7969 3.57324 17.9358 3.73996 17.7413 4.62913C17.5468 5.51831 17.3245 6.43527 17.13 7.32445C16.9911 7.93575 16.7132 8.15805 16.0741 8.15805C14.6014 8.15805 13.1287 8.15805 11.656 8.15805C11.2948 8.15805 11.1281 8.26919 11.0447 8.63042C9.71096 14.5212 8.34941 20.412 6.98786 26.275C6.82115 26.9696 6.57106 27.1641 5.90418 27.1919C4.65378 27.1919 3.43117 27.1919 2.18077 27.1919C1.54167 27.1919 1.34717 26.9419 1.4861 26.3305C2.56978 21.579 3.68125 16.7997 4.76493 12.0482C5.0428 10.7144 5.32066 9.46402 5.62632 8.13026Z" fill="white"/>
<path d="M61.1993 27.5532C59.4766 27.3031 57.7816 27.053 56.0588 26.7752C55.3086 26.6362 55.2252 26.4417 55.4197 25.6915C55.5864 24.9413 55.7532 24.2188 55.9477 23.4686C56.0866 22.9128 56.3922 22.7183 56.948 22.7739C58.5596 22.9128 60.1712 23.0795 61.7551 23.1907C62.1719 23.2185 62.6165 23.1629 63.0333 23.1073C63.6446 23.024 64.0614 22.6627 64.2281 22.0514C64.367 21.4679 64.0058 21.1345 63.589 20.8844C62.3386 20.023 61.0604 19.1894 59.7822 18.328C58.8375 17.6889 58.1706 16.8275 57.9761 15.6883C57.5593 13.0486 59.0876 10.4088 61.5884 9.40849C63.1444 8.79718 64.756 8.68604 66.3954 8.71382C67.9793 8.7694 69.5354 8.99169 71.0636 9.3807C71.5638 9.51964 71.7305 9.79751 71.6194 10.2699C71.4248 11.1035 71.2581 11.9371 71.0358 12.7429C70.8969 13.2708 70.5079 13.4098 70.0077 13.3542C68.535 13.2153 67.0901 13.1041 65.6174 12.993C65.1451 12.9652 64.6727 12.993 64.1725 13.0208C63.6724 13.0485 63.3389 13.3264 63.2278 13.8266C63.1166 14.2712 63.3945 14.5212 63.7001 14.7435C64.9505 15.5771 66.2287 16.4107 67.4513 17.2443C68.8407 18.1891 69.7299 19.4395 69.5354 21.2178C69.3964 22.5794 68.8963 23.8298 67.9515 24.8579C66.6177 26.3306 64.9228 27.0253 63.0055 27.3031C62.3942 27.3865 61.7829 27.4143 61.1438 27.4421C61.2271 27.4976 61.2271 27.5254 61.1993 27.5532Z" fill="white"/>
<path d="M42.9714 9.90865C43.9717 9.54742 45.0276 9.15841 46.1113 8.82497C46.5003 8.71382 46.9449 8.68604 47.3617 8.68604C47.8063 8.68604 48.0564 8.9639 47.9452 9.40849C47.7229 10.381 47.5006 11.3258 47.2783 12.2983C47.1672 12.7985 46.8893 13.0208 46.3892 13.0208C45.0554 12.993 43.805 13.382 42.5824 13.8544C42.2212 13.9933 42.0267 14.2156 41.9433 14.6046C41.0541 18.4669 40.1649 22.3293 39.2758 26.1917C39.109 26.9141 38.8868 27.1086 38.1365 27.1086C37.025 27.1086 35.9136 27.1086 34.7743 27.1086C34.0797 27.1086 33.9129 26.8585 34.0519 26.1639C35.3023 20.6899 36.5805 15.1881 37.8309 9.71415C37.9698 9.15841 38.2199 8.93611 38.8034 8.93611C39.8593 8.93611 40.943 8.93611 41.9989 8.93611C42.9992 8.9639 43.0825 9.04726 42.9714 9.90865Z" fill="white"/>
<path d="M55.1701 12.0482C54.8922 13.243 54.6421 14.3267 54.3921 15.3826C53.5585 18.9671 52.7526 22.5516 51.919 26.1361C51.7245 26.9419 51.53 27.1364 50.6964 27.1364C49.6405 27.1364 48.5568 27.1364 47.5009 27.1364C46.6951 27.1364 46.5284 26.9141 46.6951 26.1361C47.4732 22.7183 48.279 19.3005 49.057 15.9106C49.2515 15.0492 49.446 14.1878 49.6683 13.3264C49.6961 13.1597 49.9184 12.9374 50.0573 12.9652C51.7801 12.9652 53.4751 12.7985 55.1701 12.0482Z" fill="white"/>
<path d="M142.059 28.2478C142.254 27.7754 142.393 27.4698 142.531 27.1641C142.698 26.8585 142.893 26.5528 143.115 26.136C142.893 26.2472 142.782 26.2749 142.67 26.3305C141.003 27.2475 139.197 27.5809 137.335 27.2753C135.39 26.9696 134.251 25.8026 134.251 23.8019C134.223 21.7457 134.751 19.8284 136.307 18.328C137.419 17.2443 138.836 16.7441 140.336 16.5496C141.781 16.3829 143.226 16.3551 144.699 16.2995C145.116 16.2995 145.31 16.1884 145.366 15.7716C145.421 15.4103 145.532 15.0491 145.588 14.6879C145.727 13.6598 145.282 13.0485 144.226 13.0485C142.476 13.0485 140.725 13.1318 138.947 13.1874C138.864 13.1874 138.808 13.2152 138.725 13.2152C137.724 13.3263 137.613 13.1874 137.808 12.2149C137.947 11.548 138.113 10.9089 138.252 10.242C138.363 9.79744 138.614 9.46399 139.086 9.38063C141.615 8.85269 144.171 8.49146 146.755 8.88048C147.422 8.99162 148.089 9.18612 148.672 9.46399C150.256 10.1864 151.006 11.6591 150.84 13.6042C150.784 14.2433 150.701 14.8824 150.534 15.4937C149.951 17.6611 150.59 19.495 152.062 21.0788C153.035 22.1069 154.23 22.8016 155.563 23.2462C155.647 23.274 155.73 23.3018 155.814 23.3296C155.841 23.3296 155.841 23.3851 155.897 23.4685C153.535 23.3573 151.256 23.0239 149.061 21.968C148.922 22.6349 148.783 23.2184 148.617 23.8575C149.061 23.9131 149.423 23.9131 149.784 23.9686C151.312 24.3021 152.813 24.7745 154.341 24.9968C158.287 25.5803 161.815 24.6077 164.65 21.6901C166.345 19.9396 167.095 16.2717 165.483 13.8821C164.455 12.3538 162.177 11.3257 160.537 11.7425C159.537 11.9926 158.814 12.6595 158.342 13.5486C157.842 14.4378 158.036 15.3548 158.759 16.1328C159.037 16.4384 159.37 16.7441 159.565 17.1053C159.704 17.3554 159.787 17.8556 159.648 17.9945C159.454 18.189 158.981 18.2724 158.703 18.1612C157.953 17.9111 157.564 17.2998 157.397 16.5496C157.342 16.2717 157.231 15.9661 157.064 15.7438C156.758 15.327 156.314 15.327 156.119 15.7716C155.897 16.3273 155.758 16.9942 155.841 17.5499C156.314 20.1619 158.842 21.1344 161.121 19.7451C162.01 19.1893 162.26 18.0223 161.76 16.9386C161.593 16.5774 161.371 16.2717 161.176 15.9383C161.037 15.716 160.871 15.5493 160.732 15.327C160.287 14.6323 160.259 14.2711 160.593 13.9376C160.982 13.5208 161.843 13.4097 162.371 13.7431C163.538 14.4656 164.094 15.6049 164.288 16.9108C164.65 18.9948 163.677 20.4675 162.01 21.579C157.814 24.3299 153.396 21.1622 152.813 17.1887C152.34 13.9099 153.591 11.2979 156.314 9.38063C159.037 7.46335 161.899 7.43557 164.816 8.85269C167.289 10.0753 168.901 11.9926 169.457 14.7435C169.929 17.0775 169.512 19.3005 168.595 21.4401C166.845 25.4691 163.483 27.4698 159.454 28.5812C157.647 29.0814 155.814 29.2481 153.98 28.8035C153.09 28.5812 152.229 28.2478 151.34 28.0255C148.672 27.2753 145.977 26.9974 143.282 27.8588C142.92 27.9144 142.587 28.0533 142.059 28.2478ZM144.588 19.3838C143.198 19.4672 141.92 19.5784 140.698 20.1063C140.058 20.3842 139.531 20.8288 139.169 21.4678C138.641 22.4404 139.03 23.3018 140.086 23.4407C141.281 23.6074 142.42 23.4129 143.504 22.9405C143.643 22.885 143.81 22.746 143.837 22.6349C144.088 21.579 144.338 20.5231 144.588 19.3838Z" fill="#A8BD3A"/>
<path d="M80.2617 10.2142C80.8453 9.93636 81.3454 9.68627 81.8734 9.46398C83.2349 8.85267 84.6798 8.60259 86.1803 8.76931C87.0417 8.85267 87.8197 9.15833 88.3477 9.88078C88.5977 10.2142 88.82 10.1864 89.1257 10.0197C90.654 9.24169 92.2378 8.71375 93.9606 8.71375C94.9331 8.71375 95.9056 8.76932 96.7948 9.29727C97.9341 9.96415 98.3787 11.0478 98.3231 12.2704C98.2953 13.5208 98.1286 14.7712 97.8785 15.9939C97.156 19.3838 96.3224 22.7738 95.5444 26.1638C95.3777 26.8585 95.0998 27.0808 94.4052 27.0808C93.2937 27.0808 92.21 27.0808 91.0985 27.0808C90.4039 27.0808 90.2372 26.8862 90.4039 26.1916C91.1819 22.8016 91.9599 19.4116 92.738 16.0216C92.8769 15.4381 92.988 14.8268 93.0158 14.2433C93.0436 13.5208 92.7102 13.1596 91.9877 13.0485C91.0152 12.9095 90.0704 13.1596 89.1813 13.4931C89.0701 13.5486 88.959 13.7431 88.9312 13.9099C88.0142 17.9389 87.0973 21.968 86.1803 25.9971C85.958 26.9418 85.8191 27.0808 84.8465 27.0808C83.8184 27.0808 82.7903 27.0808 81.7622 27.0808C81.012 27.0808 80.8452 26.8585 81.012 26.136C81.8456 22.5515 82.6514 18.9392 83.485 15.3548C83.5683 14.9658 83.6239 14.5767 83.6239 14.1877C83.6517 13.4375 83.3461 13.1318 82.5958 13.0485C81.5677 12.9373 80.6507 13.4097 79.7616 13.7987C79.6504 13.8543 79.5671 14.0766 79.5393 14.2433C78.7057 17.8834 77.8443 21.5234 77.0107 25.1913C76.9273 25.5803 76.8162 25.9971 76.705 26.3861C76.5661 26.8585 76.2882 27.1085 75.7881 27.1085C74.621 27.1085 73.454 27.1085 72.2592 27.1085C71.6478 27.1085 71.4811 26.8585 71.6201 26.2472C72.8705 20.8287 74.1209 15.3826 75.3713 9.96415C75.5658 9.13055 75.7603 8.96382 76.5939 8.96382C77.5664 8.96382 78.539 8.96382 79.5115 8.96382C80.2895 8.96382 80.4285 9.13054 80.2617 9.90857C80.3173 9.99193 80.2895 10.0475 80.2617 10.2142Z" fill="#A8BD3A"/>
<path d="M108.798 33.7218C109.354 31.9434 110.326 30.6097 111.966 29.8317C113.188 29.2481 114.522 29.137 115.856 29.2204C116.884 29.3037 117.912 29.3315 118.94 29.4426C120.246 29.5816 121.219 29.1092 121.83 27.9144C121.997 27.5809 122.163 27.2475 122.358 26.8585C122.052 26.8585 121.802 26.8585 121.58 26.8585C120.746 26.8585 120.246 26.4973 119.968 25.7192C119.829 25.3302 119.718 24.8856 119.69 24.4688C119.385 20.023 119.107 15.5771 118.829 11.1312C118.801 10.6588 118.745 10.1865 118.745 9.68631C118.718 9.21393 118.968 8.93606 119.44 8.93606C120.829 8.93606 122.247 8.93606 123.636 8.93606C124.053 8.93606 124.164 9.21393 124.164 9.57516C124.164 10.3254 124.192 11.0756 124.192 11.7981C124.219 14.9658 124.247 18.1057 124.275 21.2734C124.275 21.3567 124.247 21.4679 124.275 21.5234C124.358 21.6902 124.47 21.8291 124.553 21.968C124.664 21.8569 124.859 21.8013 124.914 21.6624C125.275 20.9121 125.637 20.1619 125.97 19.4117C127.471 16.1606 128.999 12.9096 130.499 9.65852C130.722 9.15836 131.055 8.88049 131.639 8.90827C132.889 8.93606 134.112 8.90827 135.362 8.90827C136.057 8.90827 136.223 9.21393 135.918 9.82524C132.611 16.2162 129.332 22.6349 125.998 28.9981C125.248 30.443 124.275 31.7489 122.775 32.4992C121.219 33.305 119.524 33.4995 117.801 33.3328C116.356 33.1939 114.911 32.9716 113.466 32.8604C111.91 32.8604 110.382 33.1661 108.798 33.7218Z" fill="#A8BD3A"/>
<path d="M112.938 28.0256C110.604 27.7477 108.353 28.0812 106.047 28.6925C106.547 27.97 107.047 27.2198 107.603 26.414C107.381 26.4973 107.27 26.5529 107.131 26.6085C105.547 27.3587 103.908 27.5532 102.213 27.2476C100.267 26.9141 99.1838 25.6081 99.2393 23.6353C99.2949 21.718 99.7395 19.9397 101.129 18.5225C102.268 17.3277 103.713 16.772 105.297 16.5775C106.686 16.383 108.076 16.3552 109.493 16.3274C110.076 16.3274 110.382 16.1607 110.437 15.5771C110.465 15.1881 110.576 14.7991 110.604 14.4101C110.66 13.7432 110.354 13.2986 109.687 13.1041C109.409 13.0208 109.131 12.993 108.854 13.0208C107.103 13.0763 105.38 13.1319 103.63 13.2153C102.796 13.2431 102.629 13.1041 102.824 12.2983C102.991 11.6036 103.157 10.909 103.296 10.2143C103.38 9.79751 103.63 9.49186 104.046 9.4085C106.825 8.82498 109.604 8.40818 112.438 9.01949C114.216 9.4085 115.55 10.381 115.8 12.2983C115.911 13.1597 115.856 14.0767 115.689 14.9381C114.939 18.467 114.077 21.9959 113.299 25.5248C113.077 26.3306 113.049 27.1642 112.938 28.0256ZM109.604 19.4395C108.576 19.4395 107.631 19.3561 106.714 19.4673C105.686 19.5784 104.963 20.1897 104.658 21.2178C104.547 21.5791 104.463 21.9403 104.408 22.3015C104.297 22.9128 104.602 23.3574 105.213 23.4408C106.381 23.6075 107.52 23.3852 108.576 22.9128C108.687 22.8573 108.798 22.7461 108.826 22.6072C109.104 21.5791 109.354 20.5232 109.604 19.4395Z" fill="#A8BD3A"/>
<path d="M50.1687 11.3813C50.3354 10.6589 50.4466 10.0475 50.6133 9.49181C50.6411 9.38066 50.9467 9.29731 51.1412 9.29731C52.7806 9.21395 54.2533 8.79715 55.4482 7.63011C56.3373 6.76872 56.6986 5.65725 56.5041 4.43464C56.3373 3.21202 55.5037 2.37842 54.3089 2.12834C53.4753 1.93383 52.6417 2.32284 52.2527 3.10087C52.0026 3.57324 52.086 3.99005 52.4194 4.37906C52.5861 4.57357 52.7806 4.76807 52.9196 5.01815C53.0029 5.15708 53.0029 5.43495 52.9196 5.49053C52.7806 5.57389 52.5028 5.62946 52.3916 5.5461C52.1415 5.3516 51.9748 5.04594 51.7803 4.79586C51.6136 4.57357 51.4469 4.35127 51.2802 4.12898C51.169 4.40685 50.9467 4.65693 50.9467 4.93479C50.9189 6.32413 52.3361 7.18552 53.5587 6.51864C54.2255 6.15741 54.4201 5.43495 54.0033 4.74028C53.8643 4.51799 53.642 4.32348 53.5587 4.0734C53.4753 3.82332 53.3919 3.43431 53.5309 3.26759C53.781 2.96194 54.1422 3.01751 54.5034 3.2398C55.5315 3.93447 55.8372 5.62946 55.0591 6.60199C54.2811 7.60232 53.253 8.10248 51.9748 7.8524C50.5855 7.57453 49.6963 6.65757 49.3907 5.32381C48.9739 3.57324 49.5296 2.10055 50.9745 0.989079C52.4472 -0.150175 54.031 -0.289106 55.6705 0.488922C58.0601 1.62818 58.9215 4.01783 58.0045 6.71314C57.0876 9.35288 55.0592 10.6033 52.475 11.159C51.7525 11.3257 51.0023 11.298 50.1687 11.3813Z" fill="#A8BD3A"/>
<path d="M57.31 34.2776C56.8932 33.2217 56.4487 32.1658 56.0041 31.0265C55.9207 32.1658 55.8096 33.1939 55.7262 34.2498C55.6706 34.2498 55.6428 34.2498 55.5873 34.2498C55.5595 34.1386 55.5039 34.0553 55.5039 33.9441C55.5873 32.916 55.6428 31.8879 55.754 30.8598C55.754 30.7764 55.8651 30.6931 55.9485 30.6097C56.0319 30.6931 56.1708 30.7764 56.1986 30.8876C56.5876 31.8601 56.9766 32.8327 57.4212 33.8886C57.7546 33.1383 58.0325 32.4714 58.3104 31.7768C58.4493 31.4711 58.5604 31.1377 58.6994 30.8598C58.7549 30.7209 58.8939 30.6375 59.1162 30.443C59.1995 31.8045 59.2829 32.9994 59.3663 34.1942C59.2829 34.1942 59.1995 34.1942 59.144 34.222C59.0606 33.1939 58.9772 32.138 58.8939 30.9432C58.3937 32.138 57.9214 33.1939 57.4768 34.2498C57.449 34.3053 57.3934 34.2776 57.31 34.2776Z" fill="#A8BD3A"/>
<path d="M86.069 32.4436C86.069 31.9712 86.0412 31.5267 86.0968 31.0543C86.1246 30.8876 86.2913 30.6375 86.4024 30.6097C86.9582 30.5819 87.5417 30.5541 88.0696 30.6653C88.931 30.832 89.3756 31.4989 89.3756 32.3603C89.3756 33.1939 88.8477 33.9719 88.0696 34.1664C87.5417 34.2775 86.9859 34.3053 86.4302 34.3053C86.2913 34.3053 86.069 34.0275 86.069 33.8607C86.0412 33.3884 86.069 32.916 86.069 32.4436ZM86.3469 34.1664C86.9582 34.083 87.5139 34.083 88.0418 33.9441C88.7643 33.7496 89.1533 33.0271 89.1255 32.2491C89.0977 31.5544 88.6531 30.9987 87.9307 30.8598C87.5139 30.7764 87.0971 30.8042 86.6525 30.8042C86.5414 30.8042 86.3469 30.9987 86.3469 31.1099C86.3191 32.1102 86.3469 33.0549 86.3469 34.1664Z" fill="#A8BD3A"/>
<path d="M10.8785 32.4158C11.1008 33.0549 11.2953 33.6384 11.5176 34.2219C11.4342 34.2497 11.3509 34.2775 11.2675 34.3053C11.1841 34.0552 11.1008 33.7773 11.0452 33.5272C10.8507 32.777 10.5728 32.5825 9.79481 32.6103C9.51695 32.6381 9.4058 32.7214 9.43359 32.9993C9.43359 33.2216 9.43359 33.4161 9.43359 33.6384C9.43359 33.8329 9.43359 34.0552 9.43359 34.2497C9.37801 34.2497 9.32244 34.2775 9.26686 34.2775C9.23908 34.1663 9.15572 34.0274 9.15572 33.9163C9.15572 32.9715 9.15572 32.0268 9.12793 31.1098C9.12793 30.7764 9.26686 30.6096 9.6003 30.6096C9.85038 30.6096 10.1005 30.5819 10.3505 30.6096C10.8785 30.6374 11.2953 30.8875 11.4064 31.4155C11.4898 31.8878 11.2119 32.2213 10.8785 32.4158ZM9.4058 31.5822C9.4058 32.388 9.4058 32.388 9.93375 32.388C10.7118 32.388 11.1286 32.1101 11.1286 31.5544C11.1286 31.0542 10.7396 30.7764 10.0171 30.7764C9.4058 30.8041 9.4058 30.8041 9.4058 31.5822Z" fill="#A8BD3A"/>
<path d="M27.7176 34.3331C26.6617 34.3331 25.9114 33.5273 25.9392 32.4436C25.967 31.3321 26.7728 30.4985 27.8565 30.5263C28.8846 30.5541 29.6626 31.3599 29.6626 32.4158C29.6349 33.5828 28.8568 34.3609 27.7176 34.3331ZM29.357 32.4436C29.357 31.4433 28.6901 30.7208 27.8009 30.7486C26.8284 30.7486 26.2171 31.4433 26.2171 32.4992C26.2171 33.4995 26.884 34.1386 27.8287 34.1386C28.7457 34.1386 29.357 33.4439 29.357 32.4436Z" fill="#A8BD3A"/>
<path d="M47.3902 32.4158C47.6125 33.0549 47.807 33.6384 48.0293 34.222C47.9459 34.2497 47.8626 34.2775 47.7792 34.3053C47.6959 34.0275 47.6125 33.7496 47.5291 33.4717C47.3346 32.7771 47.1123 32.6103 46.3899 32.6103C46.0564 32.6103 45.8897 32.7215 45.9175 33.0827C45.9453 33.4439 45.9175 33.8329 45.8897 34.1942C45.8897 34.222 45.8342 34.2497 45.7508 34.3331C45.6952 34.1942 45.6396 34.083 45.6396 33.9719C45.6396 33.0271 45.6396 32.0546 45.6396 31.1098C45.6396 30.8042 45.7508 30.6375 46.0564 30.6375C46.2787 30.6375 46.5288 30.6097 46.7511 30.6375C47.2513 30.6653 47.6959 30.7764 47.8348 31.3044C48.0015 31.7767 47.807 32.1935 47.3902 32.4158ZM46.4177 30.7764C46.2232 30.7764 45.8064 30.7486 45.9453 31.2766C46.0565 31.6656 45.5007 32.3602 46.4177 32.388C47.1679 32.4158 47.6403 32.1102 47.6403 31.5822C47.6681 31.0821 47.2791 30.8042 46.4177 30.7764Z" fill="#A8BD3A"/>
<path d="M60.8672 34.222C61.3673 32.9994 61.8397 31.7767 62.3399 30.5819C62.4232 30.5819 62.4788 30.5819 62.5622 30.5819C63.0623 31.8045 63.5625 33.0271 64.0349 34.2498C63.9793 34.2775 63.8959 34.3053 63.8404 34.3609C63.7292 34.1108 63.5625 33.8885 63.5069 33.6384C63.3958 33.1939 63.1457 32.9716 62.6733 33.0549C62.6455 33.0549 62.59 33.0549 62.5622 33.0549C61.6174 33.0549 61.6174 33.0549 61.2562 33.9441C61.2006 34.083 61.1173 34.222 61.0339 34.3609C60.9783 34.2775 60.9228 34.2498 60.8672 34.222ZM62.451 30.8876C62.201 31.5822 61.9787 32.1102 61.7564 32.6937C62.2565 32.6937 62.6733 32.6937 63.1457 32.6937C62.9234 32.0824 62.7011 31.5544 62.451 30.8876Z" fill="#A8BD3A"/>
<path d="M71.4537 34.2775C71.3426 33.9996 71.2037 33.7218 71.1203 33.4161C71.0369 33.0827 70.8424 32.9437 70.509 32.9715C70.4812 32.9715 70.4812 32.9715 70.4534 32.9715C69.3419 32.9159 69.3419 32.9159 68.8974 33.944C68.8418 34.0552 68.7584 34.1663 68.7029 34.2775C68.6473 34.2497 68.5917 34.2219 68.5361 34.1941C69.0363 32.9715 69.5087 31.7489 70.0088 30.5541C70.0922 30.5541 70.1478 30.5541 70.2311 30.5541C70.7313 31.7767 71.2037 32.9715 71.7038 34.1941C71.6205 34.2219 71.5371 34.2497 71.4537 34.2775ZM70.8146 32.7214C70.5646 32.1101 70.3423 31.5822 70.0922 30.9153C69.8421 31.5822 69.6198 32.1101 69.3975 32.7214C69.8977 32.7214 70.3145 32.7214 70.8146 32.7214Z" fill="#A8BD3A"/>
<path d="M79.0391 34.2498C79.5392 33.0271 80.0394 31.8045 80.5118 30.5819C80.5951 30.5819 80.6507 30.5819 80.7341 30.5819C81.2342 31.8045 81.7066 32.9994 82.2068 34.222C82.1512 34.2498 82.0956 34.2775 82.0122 34.3053C81.8733 33.9997 81.7066 33.7218 81.5954 33.4162C81.4843 33.0827 81.2898 32.9716 80.9564 32.9994C80.9008 32.9994 80.8452 32.9994 80.7896 32.9994C79.7893 32.9994 79.7893 32.9994 79.4003 33.9163C79.3447 34.0552 79.2336 34.1942 79.178 34.3331C79.1224 34.2775 79.0668 34.2775 79.0391 34.2498ZM80.6229 30.9154C80.3728 31.5822 80.1783 32.138 79.9282 32.7215C80.4562 32.7215 80.873 32.7215 81.3454 32.7215C81.0953 32.138 80.873 31.5822 80.6229 30.9154Z" fill="#A8BD3A"/>
<path d="M92.9603 30.8042C92.5713 30.8042 92.2101 30.832 91.8211 30.8042C91.4321 30.7764 91.2654 30.9154 91.2931 31.3044C91.3209 31.5823 91.2931 31.8601 91.2931 32.2214C91.8489 32.2214 92.3768 32.2214 92.877 32.2214C92.877 32.2769 92.877 32.3325 92.877 32.3881C92.3768 32.3881 91.8767 32.3881 91.3209 32.3881C91.3209 32.9716 91.3209 33.4718 91.3209 34.0553C91.9045 34.0553 92.488 34.0553 93.0715 34.0553C93.0715 34.1108 93.0715 34.1942 93.0715 34.2498C92.4324 34.2498 91.8211 34.2498 91.182 34.222C91.1264 34.222 91.0153 33.9997 91.0153 33.8886C91.0153 32.8882 90.9875 31.9157 91.0153 30.9154C91.0153 30.7764 91.182 30.5542 91.2931 30.5542C91.8489 30.5264 92.4046 30.5264 92.9603 30.5264C92.9603 30.6653 92.9603 30.7487 92.9603 30.8042Z" fill="#A8BD3A"/>
<path d="M5.62737 34.1386C6.29425 34.1386 6.84998 34.1386 7.4335 34.1386C7.4335 34.1941 7.4335 34.2497 7.4335 34.2775C6.82219 34.2775 6.1831 34.2775 5.57179 34.2497C5.48843 34.2497 5.37729 34.0274 5.37729 33.8885C5.3495 32.9159 5.3495 31.9434 5.37729 30.9709C5.37729 30.8319 5.54401 30.5819 5.65515 30.5819C6.21089 30.5541 6.76662 30.5541 7.32235 30.5541C7.32235 30.6374 7.32235 30.693 7.32235 30.7764C6.98891 30.7764 6.62769 30.8042 6.29425 30.7764C5.7663 30.7208 5.54401 30.8875 5.62737 31.4432C5.65515 31.6655 5.62737 31.8878 5.62737 32.2213C6.21089 32.2213 6.71105 32.2213 7.21121 32.2213C7.21121 32.2769 7.21121 32.3602 7.21121 32.4158C6.84998 32.4158 6.46097 32.4158 6.09974 32.4158C5.73851 32.388 5.57179 32.5547 5.59958 32.9159C5.65515 33.305 5.62737 33.6662 5.62737 34.1386Z" fill="#A8BD3A"/>
<path d="M43.6947 30.6652C43.6947 31.5266 43.778 32.388 43.6669 33.2494C43.5835 34.0552 43 34.3886 42.1664 34.333C41.4717 34.3052 41.0272 33.8884 40.9716 33.0826C40.916 32.3324 40.916 31.5544 40.916 30.8041C40.916 30.7486 40.9994 30.6652 41.1383 30.6096C41.1383 30.7763 41.1661 30.9708 41.1661 31.1376C41.1661 31.6933 41.1383 32.2768 41.1939 32.8326C41.2495 33.6939 41.6107 34.1107 42.3054 34.1107C43.0278 34.1107 43.4446 33.6662 43.5002 32.8326C43.528 32.249 43.5002 31.6655 43.5002 31.082C43.5002 30.9431 43.528 30.8041 43.5558 30.6374C43.5835 30.6652 43.6391 30.6652 43.6947 30.6652Z" fill="#A8BD3A"/>
<path d="M53.6151 30.8041C53.2539 30.8041 52.8648 30.7486 52.5314 30.8319C52.3369 30.8875 52.059 31.1654 52.059 31.3599C52.0312 31.5822 52.198 31.8878 52.3925 32.0545C52.6425 32.249 52.976 32.3046 53.2539 32.4435C53.7262 32.6658 53.9207 33.0549 53.8374 33.5828C53.7262 34.0552 53.3928 34.3053 52.9204 34.333C52.5036 34.3608 52.059 34.4164 51.7256 33.9718C51.8367 33.9996 51.9201 34.0274 52.0312 34.0274C52.3369 34.0552 52.6425 34.1663 52.9204 34.083C53.1705 33.9996 53.5317 33.7217 53.5595 33.4994C53.5873 33.2494 53.365 32.8881 53.1705 32.6658C52.976 32.4713 52.6703 32.4435 52.3925 32.3324C51.9479 32.1379 51.67 31.8322 51.7534 31.3321C51.8367 30.8597 52.1702 30.5818 52.6425 30.5541C52.976 30.5263 53.3372 30.6096 53.6707 30.6374C53.6429 30.693 53.6151 30.7486 53.6151 30.8041Z" fill="#A8BD3A"/>
<path d="M77.3163 30.8598C77.1218 30.832 76.9272 30.7487 76.7327 30.7487C76.3159 30.7209 75.8991 30.7764 75.7602 31.2766C75.6213 31.749 75.9269 31.9991 76.3159 32.1658C76.566 32.2769 76.8995 32.3047 77.094 32.4992C77.3163 32.7493 77.5386 33.0827 77.5663 33.4162C77.6219 33.8052 77.344 34.0831 76.955 34.2498C76.3993 34.4721 75.7046 34.3609 75.4268 33.9719C75.7602 34.0275 76.0936 34.1108 76.3993 34.1386C76.8439 34.1664 77.2051 33.9997 77.2885 33.4995C77.3718 32.9994 77.094 32.7493 76.6772 32.5826C76.4271 32.4992 76.177 32.3881 75.9547 32.2769C75.5935 32.0824 75.3712 31.749 75.5101 31.36C75.6213 31.0821 75.8991 30.7487 76.177 30.6375C76.5382 30.5264 76.955 30.6097 77.3718 30.6097C77.3163 30.6931 77.3163 30.7764 77.3163 30.8598Z" fill="#A8BD3A"/>
<path d="M13.1017 30.6096C13.5185 31.6933 13.9075 32.8048 14.3521 33.9718C14.8245 32.8048 15.2969 31.6933 15.7415 30.6096C15.8248 30.6374 15.8804 30.6652 15.9638 30.693C15.4636 31.9156 14.9634 33.1382 14.4633 34.333C14.3799 34.333 14.3243 34.333 14.241 34.333C13.7964 33.1104 13.3518 31.9156 12.9072 30.693C12.9628 30.6652 13.0184 30.6374 13.1017 30.6096Z" fill="#A8BD3A"/>
<path d="M101.436 30.5819C101.825 31.6656 102.242 32.7771 102.659 33.9719C103.159 32.7771 103.603 31.6934 104.048 30.5819C104.103 30.6097 104.159 30.6375 104.215 30.6375C104.187 30.7486 104.187 30.8598 104.131 30.9709C103.714 31.9713 103.325 32.9716 102.881 33.9719C102.825 34.083 102.714 34.1664 102.631 34.2775C102.547 34.1942 102.436 34.1386 102.381 34.0275C101.992 32.9438 101.603 31.8601 101.214 30.7764C101.186 30.7486 101.214 30.6653 101.241 30.6375C101.325 30.6097 101.38 30.6097 101.436 30.5819Z" fill="#A8BD3A"/>
<path d="M99.8516 33.9996C99.1291 34.5554 97.8231 34.3886 97.2674 33.7218C96.7117 33.0827 96.7117 31.86 97.2674 31.221C97.8509 30.5541 99.268 30.304 99.8516 30.8875C99.657 30.8597 99.4625 30.8042 99.2402 30.8042C98.5456 30.7486 97.8787 30.8319 97.4341 31.4432C97.0451 31.999 96.9617 32.6103 97.2674 33.2494C97.573 33.944 98.2955 34.2497 99.2402 34.1386C99.4625 34.083 99.657 34.0552 99.8516 33.9996Z" fill="#A8BD3A"/>
<path d="M3.34848 30.832C2.95947 30.832 2.57045 30.7764 2.23701 30.8597C2.04251 30.9153 1.82021 31.221 1.79243 31.4433C1.76464 31.6378 1.95915 31.9156 2.12587 32.0268C2.37595 32.2213 2.6816 32.3047 2.98725 32.4158C3.45963 32.6381 3.70971 32.9993 3.62635 33.5273C3.54299 33.9996 3.15397 34.3331 2.59824 34.3331C2.20922 34.3331 1.848 34.2497 1.45898 34.1941C1.48677 34.1108 1.48677 34.0274 1.51456 33.9441C1.70907 33.9996 1.87579 34.0552 2.07029 34.083C2.76496 34.2219 3.32069 33.9441 3.37627 33.4439C3.43184 32.9993 3.20955 32.7492 2.82053 32.5825C2.57045 32.4714 2.29258 32.388 2.0425 32.2491C1.68128 32.0824 1.45898 31.7767 1.57013 31.3877C1.65349 31.1098 1.87579 30.7764 2.12587 30.6375C2.51488 30.4152 2.98725 30.4429 3.34848 30.832Z" fill="#A8BD3A"/>
<path d="M22.3273 34.0552C21.4381 34.6109 20.1877 34.3608 19.6042 33.6384C19.0485 32.9437 19.1596 31.7489 19.7987 31.1098C20.3822 30.5263 21.8271 30.2762 22.2995 30.8875C21.4103 30.693 20.5489 30.5819 19.9654 31.3321C19.6876 31.6655 19.5486 32.1935 19.5486 32.6381C19.5208 33.7495 20.2711 34.1108 22.3273 34.0552Z" fill="#A8BD3A"/>
<path d="M33.0521 30.8598C32.8576 30.832 32.6631 30.7486 32.4686 30.7486C32.024 30.7208 31.635 30.8042 31.4961 31.2766C31.3571 31.7489 31.6906 31.999 32.0796 32.1657C32.3575 32.2769 32.6909 32.3325 32.8854 32.527C33.1077 32.7493 33.33 33.1383 33.3022 33.4161C33.2744 33.694 32.9966 34.0274 32.7187 34.1942C32.2463 34.4998 31.4961 34.3331 31.1904 33.9441C31.5239 33.9997 31.8573 34.083 32.163 34.1108C32.6076 34.1108 32.9966 33.9719 33.0799 33.4717C33.1633 32.9716 32.8854 32.7215 32.4408 32.5547C32.1908 32.4436 31.9129 32.3602 31.6628 32.2213C31.3294 32.0268 31.1071 31.6934 31.246 31.3321C31.3849 31.0543 31.635 30.7208 31.9129 30.6097C32.2741 30.4985 32.6909 30.5819 33.0799 30.5819C33.0799 30.693 33.0799 30.7764 33.0521 30.8598Z" fill="#A8BD3A"/>
<path d="M37.971 34.2775C37.9432 34.1108 37.9154 33.9163 37.9154 33.7496C37.9154 32.9438 37.8877 32.1657 37.9154 31.3599C37.9154 30.9431 37.8043 30.7764 37.3875 30.8042C37.1374 30.832 36.9151 30.8042 36.665 30.8042C36.665 30.7486 36.665 30.693 36.665 30.6375C37.6098 30.6375 38.5823 30.6375 39.5271 30.6375C39.5271 30.693 39.5271 30.7486 39.5271 30.8042C39.2214 30.8042 38.9158 30.832 38.6101 30.8042C38.2767 30.7764 38.1655 30.9153 38.1933 31.2488C38.2211 32.0824 38.1933 32.916 38.1933 33.7496C38.1933 33.9163 38.1933 34.083 38.1933 34.2497C38.1099 34.2497 38.0544 34.2497 37.971 34.2775Z" fill="#A8BD3A"/>
<path d="M65.0905 30.5541C65.4796 31.1654 65.8408 31.8045 66.2576 32.4991C66.7022 31.8323 67.0912 31.1932 67.508 30.5819C67.5636 30.6096 67.6191 30.6652 67.7025 30.693C67.3413 31.2487 66.8967 31.7489 66.6744 32.3602C66.4243 32.9437 66.3965 33.6106 66.2576 34.3886C66.1464 33.6384 66.1187 32.9715 65.8964 32.388C65.6741 31.8045 65.2573 31.2765 64.9238 30.7208C64.9794 30.6374 65.035 30.6097 65.0905 30.5541Z" fill="#A8BD3A"/>
<path d="M17.4369 35C17.4829 35 17.5202 33.8554 17.5202 32.4436C17.5202 31.0317 17.4829 29.8872 17.4369 29.8872C17.3908 29.8872 17.3535 31.0317 17.3535 32.4436C17.3535 33.8554 17.3908 35 17.4369 35Z" fill="#A8BD3A"/>
<path d="M24.0771 34.2498C24.0771 33.0549 24.0771 31.8601 24.0771 30.6653C24.1327 30.6653 24.1883 30.6653 24.2439 30.6653C24.2717 31.8601 24.2439 33.0549 24.2717 34.2498C24.1883 34.2498 24.1327 34.2498 24.0771 34.2498Z" fill="#A8BD3A"/>
<path d="M49.7246 34.2219C49.7246 33.0271 49.7246 31.8322 49.7246 30.6096C49.9469 30.9431 50.0025 33.6939 49.7246 34.2219Z" fill="#A8BD3A"/>
</svg>
