<?xml version="1.0" encoding="utf-8"?>
<!-- Generator: Adobe Illustrator 25.4.1, SVG Export Plug-In . SVG Version: 6.00 Build 0)  -->
<svg version="1.1" id="Capa_1" xmlns="http://www.w3.org/2000/svg" xmlns:xlink="http://www.w3.org/1999/xlink" x="0px" y="0px"
	 viewBox="0 0 170 35" style="enable-background:new 0 0 170 35;" xml:space="preserve">
<style type="text/css">
	.st0{fill:#0A2797;}
	.st1{fill:#A8BD3A;}
</style>
<path class="st0" d="M25.5,25.9c-0.4,0.2-0.8,0.4-1.2,0.6c-1.8,0.9-3.6,1.1-5.5,0.8c-2-0.3-3-1.6-3.1-3.7c0-1.7,0.4-3.3,0.8-4.9
	c0.7-2.9,1.3-5.8,2-8.8c0.2-0.7,0.4-0.9,1.2-0.9c1.1,0,2.1,0,3.2,0c0.9,0,1,0.2,0.8,1.1c-0.6,2.8-1.3,5.6-1.9,8.4
	c-0.2,1-0.4,2-0.6,3.1c-0.2,0.9,0.3,1.5,1.3,1.6c1.3,0.1,2.4-0.4,3.6-0.9c0.1-0.1,0.2-0.3,0.3-0.5c0.9-3.9,1.8-7.8,2.7-11.7
	c0.2-0.8,0.4-1,1.2-1c1.1,0,2.2,0,3.3,0c0.7,0,0.9,0.3,0.7,0.9c-0.5,2.2-1,4.4-1.5,6.6c-0.7,3.2-1.5,6.3-2.2,9.5
	c-0.3,1.1-0.4,1.2-1.4,1.2c-0.9,0-1.8,0-2.7,0c-0.8,0-0.9-0.1-0.8-0.9C25.5,26.1,25.5,26,25.5,25.9z"/>
<path class="st0" d="M5.6,8.1c-1.6,0-3.1,0-4.7,0C0,8.1-0.1,8,0.1,7c0.2-0.8,0.4-1.7,0.6-2.5c0.2-0.8,0.4-0.9,1.2-0.9
	c2.4,0,4.9,0,7.3,0c2.6,0,5.1,0,7.7,0c0.9,0,1,0.2,0.8,1.1c-0.2,0.9-0.4,1.8-0.6,2.7c-0.1,0.6-0.4,0.8-1.1,0.8c-1.5,0-2.9,0-4.4,0
	c-0.4,0-0.5,0.1-0.6,0.5C9.7,14.5,8.3,20.4,7,26.3c-0.2,0.7-0.4,0.9-1.1,0.9c-1.3,0-2.5,0-3.7,0c-0.6,0-0.8-0.2-0.7-0.9
	c1.1-4.8,2.2-9.5,3.3-14.3C5,10.7,5.3,9.5,5.6,8.1z"/>
<path class="st0" d="M61.2,27.6c-1.7-0.3-3.4-0.5-5.1-0.8c-0.8-0.1-0.8-0.3-0.6-1.1c0.2-0.8,0.3-1.5,0.5-2.2c0.1-0.6,0.4-0.8,1-0.7
	c1.6,0.1,3.2,0.3,4.8,0.4c0.4,0,0.9,0,1.3-0.1c0.6-0.1,1-0.4,1.2-1.1c0.1-0.6-0.2-0.9-0.6-1.2c-1.3-0.9-2.5-1.7-3.8-2.6
	c-0.9-0.6-1.6-1.5-1.8-2.6c-0.4-2.6,1.1-5.3,3.6-6.3c1.6-0.6,3.2-0.7,4.8-0.7C68,8.8,69.5,9,71.1,9.4c0.5,0.1,0.7,0.4,0.6,0.9
	c-0.2,0.8-0.4,1.7-0.6,2.5c-0.1,0.5-0.5,0.7-1,0.6c-1.5-0.1-2.9-0.3-4.4-0.4c-0.5,0-0.9,0-1.4,0c-0.5,0-0.8,0.3-0.9,0.8
	c-0.1,0.4,0.2,0.7,0.5,0.9c1.3,0.8,2.5,1.7,3.8,2.5c1.4,0.9,2.3,2.2,2.1,4c-0.1,1.4-0.6,2.6-1.6,3.6c-1.3,1.5-3,2.2-4.9,2.4
	c-0.6,0.1-1.2,0.1-1.9,0.1C61.2,27.5,61.2,27.5,61.2,27.6z"/>
<path class="st0" d="M43,9.9c1-0.4,2.1-0.8,3.1-1.1c0.4-0.1,0.8-0.1,1.3-0.1c0.4,0,0.7,0.3,0.6,0.7c-0.2,1-0.4,1.9-0.7,2.9
	c-0.1,0.5-0.4,0.7-0.9,0.7c-1.3,0-2.6,0.4-3.8,0.8c-0.4,0.1-0.6,0.4-0.6,0.8c-0.9,3.9-1.8,7.7-2.7,11.6c-0.2,0.7-0.4,0.9-1.1,0.9
	c-1.1,0-2.2,0-3.4,0c-0.7,0-0.9-0.3-0.7-0.9c1.3-5.5,2.5-11,3.8-16.4c0.1-0.6,0.4-0.8,1-0.8c1.1,0,2.1,0,3.2,0C43,9,43.1,9,43,9.9z"
	/>
<path class="st0" d="M55.2,12c-0.3,1.2-0.5,2.3-0.8,3.3c-0.8,3.6-1.6,7.2-2.5,10.8c-0.2,0.8-0.4,1-1.2,1c-1.1,0-2.1,0-3.2,0
	c-0.8,0-1-0.2-0.8-1c0.8-3.4,1.6-6.8,2.4-10.2c0.2-0.9,0.4-1.7,0.6-2.6c0-0.2,0.3-0.4,0.4-0.4C51.8,13,53.5,12.8,55.2,12z"/>
<path class="st1" d="M142.1,28.2c0.2-0.5,0.3-0.8,0.5-1.1c0.2-0.3,0.4-0.6,0.6-1c-0.2,0.1-0.3,0.1-0.4,0.2c-1.7,0.9-3.5,1.3-5.3,0.9
	c-1.9-0.3-3.1-1.5-3.1-3.5c0-2.1,0.5-4,2.1-5.5c1.1-1.1,2.5-1.6,4-1.8c1.4-0.2,2.9-0.2,4.4-0.3c0.4,0,0.6-0.1,0.7-0.5
	c0.1-0.4,0.2-0.7,0.2-1.1c0.1-1-0.3-1.6-1.4-1.6c-1.8,0-3.5,0.1-5.3,0.1c-0.1,0-0.1,0-0.2,0c-1,0.1-1.1,0-0.9-1
	c0.1-0.7,0.3-1.3,0.4-2c0.1-0.4,0.4-0.8,0.8-0.9c2.5-0.5,5.1-0.9,7.7-0.5c0.7,0.1,1.3,0.3,1.9,0.6c1.6,0.7,2.3,2.2,2.2,4.1
	c-0.1,0.6-0.1,1.3-0.3,1.9c-0.6,2.2,0.1,4,1.5,5.6c1,1,2.2,1.7,3.5,2.2c0.1,0,0.2,0.1,0.3,0.1c0,0,0,0.1,0.1,0.1
	c-2.4-0.1-4.6-0.4-6.8-1.5c-0.1,0.7-0.3,1.3-0.4,1.9c0.4,0.1,0.8,0.1,1.2,0.1c1.5,0.3,3,0.8,4.6,1c3.9,0.6,7.5-0.4,10.3-3.3
	c1.7-1.8,2.4-5.4,0.8-7.8c-1-1.5-3.3-2.6-4.9-2.1c-1,0.3-1.7,0.9-2.2,1.8c-0.5,0.9-0.3,1.8,0.4,2.6c0.3,0.3,0.6,0.6,0.8,1
	c0.1,0.3,0.2,0.8,0.1,0.9c-0.2,0.2-0.7,0.3-0.9,0.2c-0.8-0.3-1.1-0.9-1.3-1.6c-0.1-0.3-0.2-0.6-0.3-0.8c-0.3-0.4-0.8-0.4-0.9,0
	c-0.2,0.6-0.4,1.2-0.3,1.8c0.5,2.6,3,3.6,5.3,2.2c0.9-0.6,1.1-1.7,0.6-2.8c-0.2-0.4-0.4-0.7-0.6-1c-0.1-0.2-0.3-0.4-0.4-0.6
	c-0.4-0.7-0.5-1.1-0.1-1.4c0.4-0.4,1.2-0.5,1.8-0.2c1.2,0.7,1.7,1.9,1.9,3.2c0.4,2.1-0.6,3.6-2.3,4.7c-4.2,2.8-8.6-0.4-9.2-4.4
	c-0.5-3.3,0.8-5.9,3.5-7.8c2.7-1.9,5.6-1.9,8.5-0.5c2.5,1.2,4.1,3.1,4.6,5.9c0.5,2.3,0.1,4.6-0.9,6.7c-1.8,4-5.1,6-9.1,7.1
	c-1.8,0.5-3.6,0.7-5.5,0.2c-0.9-0.2-1.8-0.6-2.6-0.8c-2.7-0.8-5.4-1-8.1-0.2C142.9,27.9,142.6,28.1,142.1,28.2z M144.6,19.4
	c-1.4,0.1-2.7,0.2-3.9,0.7c-0.6,0.3-1.2,0.7-1.5,1.4c-0.5,1-0.1,1.8,0.9,2c1.2,0.2,2.3,0,3.4-0.5c0.1-0.1,0.3-0.2,0.3-0.3
	C144.1,21.6,144.3,20.5,144.6,19.4z"/>
<path class="st1" d="M80.3,10.2c0.6-0.3,1.1-0.5,1.6-0.8c1.4-0.6,2.8-0.9,4.3-0.7c0.9,0.1,1.6,0.4,2.2,1.1c0.2,0.3,0.5,0.3,0.8,0.1
	c1.5-0.8,3.1-1.3,4.8-1.3c1,0,1.9,0.1,2.8,0.6c1.1,0.7,1.6,1.8,1.5,3c0,1.3-0.2,2.5-0.4,3.7c-0.7,3.4-1.6,6.8-2.3,10.2
	c-0.2,0.7-0.4,0.9-1.1,0.9c-1.1,0-2.2,0-3.3,0c-0.7,0-0.9-0.2-0.7-0.9c0.8-3.4,1.6-6.8,2.3-10.2c0.1-0.6,0.2-1.2,0.3-1.8
	c0-0.7-0.3-1.1-1-1.2c-1-0.1-1.9,0.1-2.8,0.4c-0.1,0.1-0.2,0.2-0.3,0.4c-0.9,4-1.8,8.1-2.8,12.1c-0.2,0.9-0.4,1.1-1.3,1.1
	c-1,0-2.1,0-3.1,0c-0.8,0-0.9-0.2-0.8-0.9c0.8-3.6,1.6-7.2,2.5-10.8c0.1-0.4,0.1-0.8,0.1-1.2c0-0.8-0.3-1.1-1-1.1
	c-1-0.1-1.9,0.4-2.8,0.8c-0.1,0.1-0.2,0.3-0.2,0.4c-0.8,3.6-1.7,7.3-2.5,10.9c-0.1,0.4-0.2,0.8-0.3,1.2c-0.1,0.5-0.4,0.7-0.9,0.7
	c-1.2,0-2.3,0-3.5,0c-0.6,0-0.8-0.2-0.6-0.9c1.3-5.4,2.5-10.9,3.8-16.3c0.2-0.8,0.4-1,1.2-1c1,0,1.9,0,2.9,0c0.8,0,0.9,0.2,0.8,0.9
	C80.3,10,80.3,10,80.3,10.2z"/>
<path class="st1" d="M108.8,33.7c0.6-1.8,1.5-3.1,3.2-3.9c1.2-0.6,2.6-0.7,3.9-0.6c1,0.1,2.1,0.1,3.1,0.2c1.3,0.1,2.3-0.3,2.9-1.5
	c0.2-0.3,0.3-0.7,0.5-1.1c-0.3,0-0.6,0-0.8,0c-0.8,0-1.3-0.4-1.6-1.1c-0.1-0.4-0.2-0.8-0.3-1.3c-0.3-4.4-0.6-8.9-0.9-13.3
	c0-0.5-0.1-0.9-0.1-1.4c0-0.5,0.2-0.8,0.7-0.8c1.4,0,2.8,0,4.2,0c0.4,0,0.5,0.3,0.5,0.6c0,0.8,0,1.5,0,2.2c0,3.2,0.1,6.3,0.1,9.5
	c0,0.1,0,0.2,0,0.2c0.1,0.2,0.2,0.3,0.3,0.4c0.1-0.1,0.3-0.2,0.4-0.3c0.4-0.8,0.7-1.5,1.1-2.3c1.5-3.3,3-6.5,4.5-9.8
	c0.2-0.5,0.6-0.8,1.1-0.8c1.2,0,2.5,0,3.7,0c0.7,0,0.9,0.3,0.6,0.9c-3.3,6.4-6.6,12.8-9.9,19.2c-0.8,1.4-1.7,2.8-3.2,3.5
	c-1.6,0.8-3.3,1-5,0.8c-1.4-0.1-2.9-0.4-4.3-0.5C111.9,32.9,110.4,33.2,108.8,33.7z"/>
<path class="st1" d="M112.9,28c-2.3-0.3-4.6,0.1-6.9,0.7c0.5-0.7,1-1.5,1.6-2.3c-0.2,0.1-0.3,0.1-0.5,0.2c-1.6,0.8-3.2,0.9-4.9,0.6
	c-1.9-0.3-3-1.6-3-3.6c0.1-1.9,0.5-3.7,1.9-5.1c1.1-1.2,2.6-1.8,4.2-1.9c1.4-0.2,2.8-0.2,4.2-0.3c0.6,0,0.9-0.2,0.9-0.8
	c0-0.4,0.1-0.8,0.2-1.2c0.1-0.7-0.2-1.1-0.9-1.3c-0.3-0.1-0.6-0.1-0.8-0.1c-1.8,0.1-3.5,0.1-5.2,0.2c-0.8,0-1-0.1-0.8-0.9
	c0.2-0.7,0.3-1.4,0.5-2.1c0.1-0.4,0.3-0.7,0.8-0.8c2.8-0.6,5.6-1,8.4-0.4c1.8,0.4,3.1,1.4,3.4,3.3c0.1,0.9,0.1,1.8-0.1,2.6
	c-0.8,3.5-1.6,7.1-2.4,10.6C113.1,26.3,113,27.2,112.9,28z M109.6,19.4c-1,0-2-0.1-2.9,0c-1,0.1-1.8,0.7-2.1,1.8
	c-0.1,0.4-0.2,0.7-0.2,1.1c-0.1,0.6,0.2,1.1,0.8,1.1c1.2,0.2,2.3-0.1,3.4-0.5c0.1-0.1,0.2-0.2,0.2-0.3
	C109.1,21.6,109.4,20.5,109.6,19.4z"/>
<path class="st1" d="M50.2,11.4c0.2-0.7,0.3-1.3,0.4-1.9c0-0.1,0.3-0.2,0.5-0.2c1.6-0.1,3.1-0.5,4.3-1.7c0.9-0.9,1.3-2,1.1-3.2
	c-0.2-1.2-1-2.1-2.2-2.3c-0.8-0.2-1.7,0.2-2.1,1C52,3.6,52.1,4,52.4,4.4c0.2,0.2,0.4,0.4,0.5,0.6c0.1,0.1,0.1,0.4,0,0.5
	c-0.1,0.1-0.4,0.1-0.5,0.1C52.1,5.4,52,5,51.8,4.8c-0.2-0.2-0.3-0.4-0.5-0.7c-0.1,0.3-0.3,0.5-0.3,0.8c0,1.4,1.4,2.3,2.6,1.6
	c0.7-0.4,0.9-1.1,0.4-1.8c-0.1-0.2-0.4-0.4-0.4-0.7c-0.1-0.3-0.2-0.6,0-0.8c0.3-0.3,0.6-0.3,1,0c1,0.7,1.3,2.4,0.6,3.4
	c-0.8,1-1.8,1.5-3.1,1.3c-1.4-0.3-2.3-1.2-2.6-2.5C49,3.6,49.5,2.1,51,1c1.5-1.1,3.1-1.3,4.7-0.5C58.1,1.6,58.9,4,58,6.7
	c-0.9,2.6-2.9,3.9-5.5,4.4C51.8,11.3,51,11.3,50.2,11.4z"/>
<path class="st1" d="M57.3,34.3c-0.4-1.1-0.9-2.1-1.3-3.3c-0.1,1.1-0.2,2.2-0.3,3.2c-0.1,0-0.1,0-0.1,0c0-0.1-0.1-0.2-0.1-0.3
	c0.1-1,0.1-2.1,0.3-3.1c0-0.1,0.1-0.2,0.2-0.3c0.1,0.1,0.2,0.2,0.3,0.3c0.4,1,0.8,1.9,1.2,3c0.3-0.8,0.6-1.4,0.9-2.1
	c0.1-0.3,0.2-0.6,0.4-0.9c0.1-0.1,0.2-0.2,0.4-0.4c0.1,1.4,0.2,2.6,0.3,3.8c-0.1,0-0.2,0-0.2,0c-0.1-1-0.2-2.1-0.3-3.3
	c-0.5,1.2-1,2.3-1.4,3.3C57.4,34.3,57.4,34.3,57.3,34.3z"/>
<path class="st1" d="M86.1,32.4c0-0.5,0-0.9,0-1.4c0-0.2,0.2-0.4,0.3-0.4c0.6,0,1.1-0.1,1.7,0.1c0.9,0.2,1.3,0.8,1.3,1.7
	c0,0.8-0.5,1.6-1.3,1.8c-0.5,0.1-1.1,0.1-1.6,0.1c-0.1,0-0.4-0.3-0.4-0.4C86,33.4,86.1,32.9,86.1,32.4z M86.3,34.2
	c0.6-0.1,1.2-0.1,1.7-0.2c0.7-0.2,1.1-0.9,1.1-1.7c0-0.7-0.5-1.3-1.2-1.4c-0.4-0.1-0.8-0.1-1.3-0.1c-0.1,0-0.3,0.2-0.3,0.3
	C86.3,32.1,86.3,33.1,86.3,34.2z"/>
<path class="st1" d="M10.9,32.4c0.2,0.6,0.4,1.2,0.6,1.8c-0.1,0-0.2,0.1-0.3,0.1c-0.1-0.3-0.2-0.5-0.2-0.8c-0.2-0.8-0.5-0.9-1.3-0.9
	c-0.3,0-0.4,0.1-0.4,0.4c0,0.2,0,0.4,0,0.6c0,0.2,0,0.4,0,0.6c-0.1,0-0.1,0-0.2,0c0-0.1-0.1-0.3-0.1-0.4c0-0.9,0-1.9,0-2.8
	c0-0.3,0.1-0.5,0.5-0.5c0.3,0,0.5,0,0.8,0c0.5,0,0.9,0.3,1.1,0.8C11.5,31.9,11.2,32.2,10.9,32.4z M9.4,31.6c0,0.8,0,0.8,0.5,0.8
	c0.8,0,1.2-0.3,1.2-0.8c0-0.5-0.4-0.8-1.1-0.8C9.4,30.8,9.4,30.8,9.4,31.6z"/>
<path class="st1" d="M27.7,34.3c-1.1,0-1.8-0.8-1.8-1.9c0-1.1,0.8-1.9,1.9-1.9c1,0,1.8,0.8,1.8,1.9C29.6,33.6,28.9,34.4,27.7,34.3z
	 M29.4,32.4c0-1-0.7-1.7-1.6-1.7c-1,0-1.6,0.7-1.6,1.8c0,1,0.7,1.6,1.6,1.6C28.7,34.1,29.4,33.4,29.4,32.4z"/>
<path class="st1" d="M47.4,32.4c0.2,0.6,0.4,1.2,0.6,1.8c-0.1,0-0.2,0.1-0.3,0.1c-0.1-0.3-0.2-0.6-0.3-0.8c-0.2-0.7-0.4-0.9-1.1-0.9
	c-0.3,0-0.5,0.1-0.5,0.5c0,0.4,0,0.8,0,1.1c0,0-0.1,0.1-0.1,0.1c-0.1-0.1-0.1-0.3-0.1-0.4c0-0.9,0-1.9,0-2.9c0-0.3,0.1-0.5,0.4-0.5
	c0.2,0,0.5,0,0.7,0c0.5,0,0.9,0.1,1.1,0.7C48,31.8,47.8,32.2,47.4,32.4z M46.4,30.8c-0.2,0-0.6,0-0.5,0.5c0.1,0.4-0.4,1.1,0.5,1.1
	c0.8,0,1.2-0.3,1.2-0.8C47.7,31.1,47.3,30.8,46.4,30.8z"/>
<path class="st1" d="M60.9,34.2c0.5-1.2,1-2.4,1.5-3.6c0.1,0,0.1,0,0.2,0c0.5,1.2,1,2.4,1.5,3.7c-0.1,0-0.1,0.1-0.2,0.1
	c-0.1-0.3-0.3-0.5-0.3-0.7c-0.1-0.4-0.4-0.7-0.8-0.6c0,0-0.1,0-0.1,0c-0.9,0-0.9,0-1.3,0.9c-0.1,0.1-0.1,0.3-0.2,0.4
	C61,34.3,60.9,34.2,60.9,34.2z M62.5,30.9c-0.2,0.7-0.5,1.2-0.7,1.8c0.5,0,0.9,0,1.4,0C62.9,32.1,62.7,31.6,62.5,30.9z"/>
<path class="st1" d="M71.5,34.3c-0.1-0.3-0.2-0.6-0.3-0.9c-0.1-0.3-0.3-0.5-0.6-0.4c0,0,0,0-0.1,0c-1.1-0.1-1.1-0.1-1.6,1
	c-0.1,0.1-0.1,0.2-0.2,0.3c-0.1,0-0.1-0.1-0.2-0.1c0.5-1.2,1-2.4,1.5-3.6c0.1,0,0.1,0,0.2,0c0.5,1.2,1,2.4,1.5,3.6
	C71.6,34.2,71.5,34.2,71.5,34.3z M70.8,32.7c-0.2-0.6-0.5-1.1-0.7-1.8c-0.3,0.7-0.5,1.2-0.7,1.8C69.9,32.7,70.3,32.7,70.8,32.7z"/>
<path class="st1" d="M79,34.2c0.5-1.2,1-2.4,1.5-3.7c0.1,0,0.1,0,0.2,0c0.5,1.2,1,2.4,1.5,3.6c-0.1,0-0.1,0.1-0.2,0.1
	c-0.1-0.3-0.3-0.6-0.4-0.9C81.5,33.1,81.3,33,81,33c-0.1,0-0.1,0-0.2,0c-1,0-1,0-1.4,0.9c-0.1,0.1-0.2,0.3-0.2,0.4
	C79.1,34.3,79.1,34.3,79,34.2z M80.6,30.9c-0.3,0.7-0.4,1.2-0.7,1.8c0.5,0,0.9,0,1.4,0C81.1,32.1,80.9,31.6,80.6,30.9z"/>
<path class="st1" d="M93,30.8c-0.4,0-0.8,0-1.1,0c-0.4,0-0.6,0.1-0.5,0.5c0,0.3,0,0.6,0,0.9c0.6,0,1.1,0,1.6,0c0,0.1,0,0.1,0,0.2
	c-0.5,0-1,0-1.6,0c0,0.6,0,1.1,0,1.7c0.6,0,1.2,0,1.8,0c0,0.1,0,0.1,0,0.2c-0.6,0-1.3,0-1.9,0c-0.1,0-0.2-0.2-0.2-0.3c0-1,0-2,0-3
	c0-0.1,0.2-0.4,0.3-0.4c0.6,0,1.1,0,1.7,0C93,30.7,93,30.7,93,30.8z"/>
<path class="st1" d="M5.6,34.1c0.7,0,1.2,0,1.8,0c0,0.1,0,0.1,0,0.1c-0.6,0-1.3,0-1.9,0c-0.1,0-0.2-0.2-0.2-0.4c0-1,0-1.9,0-2.9
	c0-0.1,0.2-0.4,0.3-0.4c0.6,0,1.1,0,1.7,0c0,0.1,0,0.1,0,0.2c-0.3,0-0.7,0-1,0c-0.5-0.1-0.8,0.1-0.7,0.7c0,0.2,0,0.4,0,0.8
	c0.6,0,1.1,0,1.6,0c0,0.1,0,0.1,0,0.2c-0.4,0-0.8,0-1.1,0c-0.4,0-0.5,0.1-0.5,0.5C5.7,33.3,5.6,33.7,5.6,34.1z"/>
<path class="st1" d="M43.7,30.7c0,0.9,0.1,1.7,0,2.6c-0.1,0.8-0.7,1.1-1.5,1.1c-0.7,0-1.1-0.4-1.2-1.3c-0.1-0.8-0.1-1.5-0.1-2.3
	c0-0.1,0.1-0.1,0.2-0.2c0,0.2,0,0.4,0,0.5c0,0.6,0,1.1,0,1.7c0.1,0.9,0.4,1.3,1.1,1.3c0.7,0,1.1-0.4,1.2-1.3c0-0.6,0-1.2,0-1.8
	c0-0.1,0-0.3,0.1-0.4C43.6,30.7,43.6,30.7,43.7,30.7z"/>
<path class="st1" d="M53.6,30.8c-0.4,0-0.8-0.1-1.1,0c-0.2,0.1-0.5,0.3-0.5,0.5c0,0.2,0.1,0.5,0.3,0.7c0.2,0.2,0.6,0.3,0.9,0.4
	c0.5,0.2,0.7,0.6,0.6,1.1c-0.1,0.5-0.4,0.7-0.9,0.8c-0.4,0-0.9,0.1-1.2-0.4c0.1,0,0.2,0.1,0.3,0.1c0.3,0,0.6,0.1,0.9,0.1
	c0.3-0.1,0.6-0.4,0.6-0.6c0-0.2-0.2-0.6-0.4-0.8c-0.2-0.2-0.5-0.2-0.8-0.3c-0.4-0.2-0.7-0.5-0.6-1c0.1-0.5,0.4-0.8,0.9-0.8
	c0.3,0,0.7,0.1,1,0.1C53.6,30.7,53.6,30.7,53.6,30.8z"/>
<path class="st1" d="M77.3,30.9c-0.2,0-0.4-0.1-0.6-0.1c-0.4,0-0.8,0-1,0.5c-0.1,0.5,0.2,0.7,0.6,0.9c0.3,0.1,0.6,0.1,0.8,0.3
	c0.2,0.3,0.4,0.6,0.5,0.9c0.1,0.4-0.2,0.7-0.6,0.8c-0.6,0.2-1.3,0.1-1.5-0.3c0.3,0.1,0.7,0.1,1,0.2c0.4,0,0.8-0.1,0.9-0.6
	c0.1-0.5-0.2-0.8-0.6-0.9c-0.3-0.1-0.5-0.2-0.7-0.3c-0.4-0.2-0.6-0.5-0.4-0.9c0.1-0.3,0.4-0.6,0.7-0.7c0.4-0.1,0.8,0,1.2,0
	C77.3,30.7,77.3,30.8,77.3,30.9z"/>
<path class="st1" d="M13.1,30.6c0.4,1.1,0.8,2.2,1.3,3.4c0.5-1.2,0.9-2.3,1.4-3.4c0.1,0,0.1,0.1,0.2,0.1c-0.5,1.2-1,2.4-1.5,3.6
	c-0.1,0-0.1,0-0.2,0c-0.4-1.2-0.9-2.4-1.3-3.6C13,30.7,13,30.6,13.1,30.6z"/>
<path class="st1" d="M101.4,30.6c0.4,1.1,0.8,2.2,1.2,3.4c0.5-1.2,0.9-2.3,1.4-3.4c0.1,0,0.1,0.1,0.2,0.1c0,0.1,0,0.2-0.1,0.3
	c-0.4,1-0.8,2-1.2,3c-0.1,0.1-0.2,0.2-0.2,0.3c-0.1-0.1-0.2-0.1-0.2-0.2c-0.4-1.1-0.8-2.2-1.2-3.3c0,0,0-0.1,0-0.1
	C101.3,30.6,101.4,30.6,101.4,30.6z"/>
<path class="st1" d="M99.9,34c-0.7,0.6-2,0.4-2.6-0.3c-0.6-0.6-0.6-1.9,0-2.5c0.6-0.7,2-0.9,2.6-0.3c-0.2,0-0.4-0.1-0.6-0.1
	c-0.7-0.1-1.4,0-1.8,0.6C97,32,97,32.6,97.3,33.2c0.3,0.7,1,1,2,0.9C99.5,34.1,99.7,34.1,99.9,34z"/>
<path class="st1" d="M3.3,30.8c-0.4,0-0.8-0.1-1.1,0c-0.2,0.1-0.4,0.4-0.4,0.6c0,0.2,0.2,0.5,0.3,0.6c0.3,0.2,0.6,0.3,0.9,0.4
	c0.5,0.2,0.7,0.6,0.6,1.1c-0.1,0.5-0.5,0.8-1,0.8c-0.4,0-0.8-0.1-1.1-0.1c0-0.1,0-0.2,0.1-0.2c0.2,0.1,0.4,0.1,0.6,0.1
	c0.7,0.1,1.3-0.1,1.3-0.6c0.1-0.4-0.2-0.7-0.6-0.9c-0.3-0.1-0.5-0.2-0.8-0.3c-0.4-0.2-0.6-0.5-0.5-0.9c0.1-0.3,0.3-0.6,0.6-0.8
	C2.5,30.4,3,30.4,3.3,30.8z"/>
<path class="st1" d="M22.3,34.1c-0.9,0.6-2.1,0.3-2.7-0.4c-0.6-0.7-0.4-1.9,0.2-2.5c0.6-0.6,2-0.8,2.5-0.2c-0.9-0.2-1.8-0.3-2.3,0.4
	c-0.3,0.3-0.4,0.9-0.4,1.3C19.5,33.7,20.3,34.1,22.3,34.1z"/>
<path class="st1" d="M33.1,30.9c-0.2,0-0.4-0.1-0.6-0.1c-0.4,0-0.8,0.1-1,0.5c-0.1,0.5,0.2,0.7,0.6,0.9c0.3,0.1,0.6,0.2,0.8,0.4
	c0.2,0.2,0.4,0.6,0.4,0.9c0,0.3-0.3,0.6-0.6,0.8c-0.5,0.3-1.2,0.1-1.5-0.3c0.3,0.1,0.7,0.1,1,0.2c0.4,0,0.8-0.1,0.9-0.6
	c0.1-0.5-0.2-0.8-0.6-0.9c-0.2-0.1-0.5-0.2-0.8-0.3c-0.3-0.2-0.6-0.5-0.4-0.9c0.1-0.3,0.4-0.6,0.7-0.7c0.4-0.1,0.8,0,1.2,0
	C33.1,30.7,33.1,30.8,33.1,30.9z"/>
<path class="st1" d="M38,34.3c0-0.2-0.1-0.4-0.1-0.5c0-0.8,0-1.6,0-2.4c0-0.4-0.1-0.6-0.5-0.6c-0.3,0-0.5,0-0.7,0c0-0.1,0-0.1,0-0.2
	c0.9,0,1.9,0,2.9,0c0,0.1,0,0.1,0,0.2c-0.3,0-0.6,0-0.9,0c-0.3,0-0.4,0.1-0.4,0.4c0,0.8,0,1.7,0,2.5c0,0.2,0,0.3,0,0.5
	C38.1,34.2,38.1,34.2,38,34.3z"/>
<path class="st1" d="M65.1,30.6c0.4,0.6,0.8,1.3,1.2,1.9c0.4-0.7,0.8-1.3,1.3-1.9c0.1,0,0.1,0.1,0.2,0.1c-0.4,0.6-0.8,1.1-1,1.7
	c-0.3,0.6-0.3,1.3-0.4,2c-0.1-0.8-0.1-1.4-0.4-2c-0.2-0.6-0.6-1.1-1-1.7C65,30.6,65,30.6,65.1,30.6z"/>
<path class="st1" d="M17.4,35c0,0,0.1-1.1,0.1-2.6c0-1.4,0-2.6-0.1-2.6c0,0-0.1,1.1-0.1,2.6C17.4,33.9,17.4,35,17.4,35z"/>
<path class="st1" d="M24.1,34.2c0-1.2,0-2.4,0-3.6c0.1,0,0.1,0,0.2,0c0,1.2,0,2.4,0,3.6C24.2,34.2,24.1,34.2,24.1,34.2z"/>
<path class="st1" d="M49.7,34.2c0-1.2,0-2.4,0-3.6C49.9,30.9,50,33.7,49.7,34.2z"/>
</svg>
